PathFileType	4	(X/Y/Z)	C:/Users/beibeiliu/ov580/test_trc/User2\sequence.12_training_dense_left.trc
DataRate	CameraRate	NumFrames	NumMarkers	Units	OrigDataRate	OrigDataStartFrame	OrigNumFrames
120	120	17	19	mm	120	1	57
Frame#	Time	ThumbCMC			ThumbMCP			ThumbIP			ThumbTip			IndexMCP			IndexPIP			IndexTip			MiddleMCP			MiddlePIP			MiddleTip			RingMCP			RingPIP			RingTip			PinkyMCP			PinkyPIP			PinkyTip			BackHand1			BackHand2			BackHand3	
		X0	Y0	Z0	X1	Y1	Z1	X2	Y2	Z2	X3	Y3	Z3	X4	Y4	Z4	X5	Y5	Z5	X6	Y6	Z6	X7	Y7	Z7	X8	Y8	Z8	X9	Y9	Z9	X10	Y10	Z10	X11	Y11	Z11	X12	Y12	Z12	X13	Y13	Z13	X14	Y14	Z14	X15	Y15	Z15	X16	Y16	Z16	X17	Y17	Z17	X18	Y18	Z18	
0	0	-275.922	43.3295	-6.93293	-266.83	74.5453	-30.525	-246.464	92.2971	-57.8755	-213.664	77.1749	-66.9684	-263.562	14.1323	-82.2892	-268.336	14.3422	-110.069	-269.171	14.888	-143.616	-236.551	7.10568	-91.1598	-227.649	12.6589	-124.531	-215.21	30.124	-152.105	-210.299	22.1119	-87.1542	-201.04	46.8349	-100.814	-202.445	77.4133	-80.7504	-189.085	10.025	-64.3204	-180.228	13.0767	-85.4995	-174.647	13.88	-111.921	-222.811	-4.64761	-31.3591	-227.772	-12.0715	5.94947	-258.922	-0.281074	-17.817	
1	0.00833333	-282.495	36.4306	-11.4304	-277.858	64.3618	-38.9606	-257.433	73.6944	-66.1649	-229.062	60.5203	-76.8216	-280.975	-1.23189	-83.7	-287.587	-4.64959	-113.669	-290.114	-4.54463	-144.102	-256.791	-9.74065	-95.4147	-252.544	-8.24034	-125.039	-241.837	5.21772	-158.091	-224.751	1.93567	-91.438	-221.323	27.5482	-109.913	-220.34	62.2887	-88.8134	-208.034	-3.84976	-68.3903	-197.623	-5.94341	-99.1693	-193.731	-8.5066	-119.29	-233.176	-14.7679	-30.1694	-237.875	-19.0319	1.5589	-270.414	-6.94084	-18.8685	
2	0.0166667	-290.884	29.2721	-11.2855	-288.327	52.4818	-41.2793	-270.916	58.9278	-78.8704	-247.721	45.1791	-85.0569	-304.964	-15.8951	-83.274	-308.209	-21.6973	-107.634	-316.914	-22.6164	-135.426	-275.522	-28.3825	-89.9772	-277.027	-29.5268	-124.176	-273.723	-20.9274	-156.759	-250.143	-17.4939	-91.8853	-242.173	8.47417	-115.852	-237.533	39.5985	-99.1095	-224.806	-23.7717	-73.5924	-218.632	-27.0089	-101.967	-218.048	-29.4858	-125.371	-246.504	-27.8606	-31.1675	-247.894	-25.3603	1.12003	-280.19	-15.7497	-13.702	
3	0.025	-303.256	22.8742	-16.4367	-298.323	40.2442	-46.8239	-286.911	43.9065	-81.8704	-265.8	29.8238	-94.0046	-321.914	-29.6015	-76.9252	-335.386	-35.7769	-102.602	-336.405	-40.1175	-127.198	-299.054	-42.2671	-83.2817	-302.885	-47.9648	-120.416	-300.405	-42.8386	-152.633	-272.591	-35.6854	-92.6514	-265.259	-15.0974	-118.019	-260.559	15.9162	-109.662	-248.387	-38.3132	-73.1873	-246.685	-47.4036	-101.947	-244.878	-54.3309	-125.26	-263.304	-38.1641	-32.362	-255.799	-35.1865	0.826477	-294.394	-23.6553	-12.4202	
4	0.0333333	-307.248	19.9111	-12.622	-308.281	35.989	-50.2625	-301.297	39.8013	-84.9185	-280.949	18.9739	-100.998	-341.412	-32.3504	-65.5597	-353.729	-40.6915	-88.9789	-364.873	-45.0371	-115.588	-323.745	-50.6656	-80.6974	-330.395	-54.6114	-114.462	-331.116	-53.342	-143.147	-288.672	-47.074	-88.638	-288.913	-26.8762	-117.092	-277.19	5.56624	-108.768	-263.218	-51.8827	-74.2091	-270.059	-58.5356	-98.6799	-270.817	-68.1415	-123.36	-277.413	-45.3289	-28.6297	-272.193	-36.834	2.10067	-304.572	-25.2116	-8.82007	
5	0.0416667	-313.468	22.3916	-16.4707	-312.555	38.1728	-49.9912	-306.758	36.3788	-87.5667	-290.642	16.3796	-103.42	-355.459	-26.277	-58.5976	-370.731	-37.1483	-85.9549	-384.087	-38.1916	-107.704	-337.318	-49.3231	-75.4007	-350.541	-53.1653	-104.969	-352.086	-52.9183	-138.054	-305.875	-49.613	-85.7314	-303.372	-31.5093	-115.056	-290.025	-1.84436	-110.505	-282.934	-55.928	-70.5892	-289.794	-63.7484	-93.9357	-293.369	-71.6187	-120.765	-291.084	-42.5075	-23.0688	-278.517	-36.2108	3.97986	-315.449	-19.376	-4.44361	
6	0.05	-312.473	32.9594	-17.5458	-307.749	47.1673	-53.7317	-299.674	44.0955	-85.7433	-290.284	20.847	-102.783	-363.871	-14.1982	-61.8689	-380.694	-13.6897	-79.832	-393.676	-16.9762	-106.387	-349.726	-37.7899	-73.3633	-364.253	-38.5518	-99.741	-369.599	-37.1479	-136.524	-321.085	-39.4945	-81.8632	-314.52	-26.8806	-112.717	-294.333	6.01754	-108.316	-296.017	-54.9162	-69.2305	-308.254	-63.3778	-96.8846	-315.295	-67.0074	-119.937	-300.536	-35.2754	-22.805	-285.304	-33.2269	5.65464	-318.655	-12.6844	-2.6436	
7	0.0583333	-295.442	46.8268	-12.527	-285.793	57.5608	-50.3047	-283.086	54.016	-89.734	-280.832	27.9465	-106.457	-361.754	23.7135	-60.1477	-379.721	31.6653	-83.4982	-390.418	32.3097	-106.101	-357.663	-3.22224	-72.3669	-370.616	-0.679227	-100.692	-375.366	7.91486	-137.843	-331.129	-16.1035	-83.0852	-316.955	-7.94384	-112.838	-289.012	12.3283	-108.864	-316.824	-40.3746	-68.5492	-328.687	-41.431	-91.6257	-339.167	-40.6661	-120.689	-309.427	-26.3036	-22.8589	-297.684	-24.7966	4.97975	-322.353	8.73338	-1.82224	
8	0.0666667	-270.305	53.8221	-10.654	-258.512	57.6252	-47.7002	-257.703	53.3824	-81.7347	-271.103	31.8208	-100.911	-337.294	69.8504	-52.3978	-351.951	86.2177	-76.6531	-361.407	100.387	-99.5878	-347.619	46.1682	-63.5343	-361.38	55.6558	-97.6305	-362.857	65.3295	-128.106	-334.501	21.7281	-79.9851	-319.232	24.8613	-108.347	-281.827	28.9613	-104.708	-330.466	-8.0054	-61.3372	-345.613	-0.789488	-84.5224	-357.854	4.72546	-110.856	-319.636	3.03269	-20.1264	-306.484	-7.18227	10.393	-309.982	33.6955	2.256	
9	0.075	-247.196	46.9231	-6.62534	-231.895	49.2696	-46.5772	-234.032	46.6081	-80.7407	-258.428	32.4582	-96.0098	-297.178	98.6979	-47.1377	-304.602	114.964	-65.8863	-310.795	134.524	-87.1668	-319.265	85.6093	-57.4334	-326.434	102.224	-84.8214	-329.26	112.106	-115.502	-320.53	59.83	-72.8832	-312.066	53.8004	-102.733	-278.276	37.0476	-103.903	-329.165	29.6178	-54.5442	-346.27	40.5621	-79.063	-355.32	52.055	-99.2641	-317.089	28.304	-14.8174	-309.408	16.7916	12.0114	-289.298	51.5664	7.5562	
10	0.0833333	-229.733	38.3592	-9.36796	-219.562	32.0783	-46.2587	-227.656	29.5759	-82.1373	-256.556	27.6443	-96.8295	-262.218	101.478	-50.5133	-259.626	120.499	-68.2587	-263.192	140.794	-90.839	-288.082	99.5615	-57.888	-290.328	115.22	-83.2701	-295.939	125.757	-114.285	-305.407	71.4856	-69.5045	-297.258	65.3558	-99.8598	-272.876	35.0097	-101.893	-319.073	52.0588	-49.7739	-333.011	67.4368	-71.441	-341.093	80.3214	-90.6967	-303.4	47.6648	-10.2842	-298.069	35.2063	15.0848	-269.073	58.4457	7.21258	
11	0.0916667	-221.798	27.1434	-7.05614	-209.388	15.1387	-45.4154	-221.582	11.0709	-80.209	-251.468	13.8305	-89.8388	-236.649	92.2573	-58.9625	-232.252	108.488	-81.3578	-232.599	121.91	-101.723	-264.727	93.8133	-62.3363	-267.953	109.416	-93.3932	-269.705	117.804	-126.763	-288.199	70.8209	-69.6059	-283	59.2407	-99.7089	-272.659	24.5811	-99.2743	-306.855	63.1703	-51.7459	-316.518	71.7142	-70.6439	-329.26	85.0637	-92.4309	-288.173	59.1004	-10.1266	-286.145	46.5652	19.9174	-247.774	59.7787	2.20917	
12	0.1	-209.983	27.7556	-6.92618	-202.813	7.22448	-36.8065	-211.593	-6.0844	-71.4058	-240.594	-4.96304	-85.4477	-222.625	78.1113	-69.2026	-217.043	87.5649	-92.5801	-217.642	96.0651	-115.448	-249.995	79.7414	-73.4165	-254.402	86.6379	-106.925	-257.89	86.8483	-136.364	-277.714	54.3835	-75.2642	-269.227	32.8198	-100.848	-259.233	1.16263	-89.9866	-297.151	48.4251	-50.4882	-306.13	54.7637	-74.5813	-315.112	62.9893	-101.932	-270.959	56.0077	-14.8443	-270.172	50.1157	21.1514	-236.717	58.5155	1.40718	
13	0.108333	-195.303	29.471	0.767253	-180.698	4.61817	-29.4875	-189.22	-16.8423	-58.8347	-216.149	-27.4141	-71.2776	-221.456	57.4714	-73.334	-216.406	62.8788	-98.6798	-215.501	67.0997	-129.393	-245.205	51.8165	-83.6352	-244.518	47.7399	-115.44	-244.843	39.2494	-143.534	-261.91	23.1366	-78.939	-253.365	0.427809	-96.017	-232.97	-25.1754	-80.6594	-281.77	20.3223	-57.209	-292.056	13.8041	-83.4387	-295.673	11.8726	-107.102	-263.679	39.6503	-18.5305	-264.118	45.1603	15.1478	-232.075	57.3368	-1.01851	
14	0.116667	-190.246	38.958	0.526512	-166.312	14.5323	-18.5017	-162.558	-14.7555	-43.1776	-182.994	-34.9727	-55.0967	-219.198	40.9501	-80.0989	-215.724	40.9893	-104.912	-213.326	39.5498	-133.404	-236.408	25.2673	-83.8768	-232.183	14.6399	-115.513	-227.44	-3.92532	-146.406	-244.728	-4.59883	-76.0828	-226.652	-28.1578	-89.1459	-201.707	-40.58	-70.771	-266.845	-14.2311	-55.2429	-268.419	-24.9155	-76.3429	-269.208	-36.8088	-104.734	-261.447	20.0296	-18.3603	-260.64	30.3567	10.2396	-235.408	49.0443	-9.38561	
15	0.125	-194.155	46.6917	-1.07139	-163.415	27.6941	-16.8537	-147.06	-0.425748	-38.7493	-154.964	-25.9273	-45.6842	-215.913	34.3156	-81.0157	-210.358	33.5269	-107.849	-209.934	25.1263	-137.571	-230.549	8.32979	-83.8541	-217.695	-3.374	-117.593	-206.045	-20.7374	-139.402	-227.014	-19.9171	-72.2189	-200.402	-35.3355	-82.104	-173.33	-39.598	-59.4679	-245.038	-33.5047	-51.9945	-238.634	-45.7304	-74.4599	-231.925	-58.729	-98.1499	-251.635	6.06624	-23.5555	-260.163	18.1828	7.13142	-239.469	43.8137	-17.2723	
16	0.133333	-205.919	56.9543	-2.89282	-167.454	46.3558	-19.6277	-144.093	26.9251	-34.1117	-144.022	-3.68515	-45.085	-219.118	31.4243	-81.031	-211.243	26.6099	-111.49	-206.143	21.9441	-135.864	-223.279	0.323299	-82.0161	-207.133	-12.408	-113.225	-185.065	-24.7159	-133.012	-207.091	-19.9611	-71.09	-175.579	-29.9452	-75.2619	-151.488	-17.4838	-48.8053	-221.215	-38.6355	-51.083	-210.879	-50.722	-69.9191	-198.585	-61.525	-90.3076	-246.416	-2.53437	-20.3969	-258.629	7.72309	3.11652	-246.635	34.8421	-20.3871	
